{"title":"Death.At.A.Funeral.TS.XVID.FEEL-FREE","uid":5652976,"size":1492741559,"categoryP":"video","categoryS":"movies","magnet":"?xt=urn:btih:29a843f775fe8ce217d458a05cf671f5ee15bd93&amp;dn=Death.At.A.Funeral.TS.XVID.FEEL-FREE&amp;tr=udp%3A%2F%2Ftracker.openbittorrent.com%3A80&amp;tr=udp%3A%2F%2Fopen.demonii.com%3A1337&amp;tr=udp%3A%2F%2Ftracker.coppersurfer.tk%3A6969&amp;tr=udp%3A%2F%2Fexodus.desync.com%3A6969","seeders":2,"leechers":0,"uploader":"hiest","files":7,"time":1277700043,"description":"Genre:Comedy\nLanguage:English\nIMDb:http://www.imdb.com/title/tt1321509/\nSource Video:Spanish,TS-Screener.Thanks\nSource Audio:NoGrp.Thanks\nEncoder: Tony2\n..............................................\nGeneral\nComplete name : Death.At.A.Funeral.TS.XVID.FEEL-FREE\nFormat : AVI\nFormat/Info : Audio Video Interleave\nFile size : 1.39 GiB\nDuration : 1h 28mn\n..............................................\nVideo\nID : 0\nFormat : MPEG-4 Visual\nFormat profile : AdvancedSimple@L5\nFormat settings, BVOP : Yes\nFormat settings, QPel : No\nFormat settings, GMC : No warppoints\nFormat settings, Matrix : Default (MPEG)\nMuxing mode : Packed bitstream\nCodec ID : XVID\nCodec ID/Hint : XviD\nDuration : 1h 28mn\nBit rate : 2 040 Kbps\nWidth : 720 pixels\nHeight : 368 pixels\nDisplay aspect ratio : 1.957\nFrame rate : 23.976 fps\nResolution : 24 bits\nColorimetry : 4:2:0\nScan type : Progressive\nBits/(Pixel*Frame) : 0.321\nStream size : 1.26 GiB (91%)\nWriting library : XviD 1.2.1 (UTC 2008-12-04)\n...............................................\nAudio\nID : 1\nFormat : AC-3\nFormat/Info : Audio Coding 3\nCodec ID : 2000\nDuration : 1h 28mn\nBit rate mode : Constant\nBit rate : 192 Kbps\nChannel(s) : 2 channels\nChannel positions : L R\nSampling rate : 48.0 KHz\nStream size : 122 MiB (9%)\nAlignment : Split accross interleaves\nInterleave, duration : 42 ms (1.00 video frame)\nInterleave, preload duration : 500 ms\n...............................................\nPlot: \nA funeral ceremony turns into a debacle of exposed family secrets and misplaced bodies.\n...................................................\nScreenshots: &lt;a href=&quot;\nhttp://postimg.com/image/18000/17055.jpg&quot; rel=&quot;nofollow&quot; target=&quot;_NEW&quot;&gt;\nhttp://postimg.com/image/18000/17055.jpg&lt;/a&gt;\n &lt;a href=&quot;\nhttp://postimg.com/image/18000/17056.jpg&quot; rel=&quot;nofollow&quot; target=&quot;_NEW&quot;&gt;\nhttp://postimg.com/image/18000/17056.jpg&lt;/a&gt;\n\n.......................................................","torrent":{"xt":"urn:btih:29a843f775fe8ce217d458a05cf671f5ee15bd93","amp;dn":"Death.At.A.Funeral.TS.XVID.FEEL-FREE","amp;tr":["udp%3A%2F%2Ftracker.openbittorrent.com%3A80","udp%3A%2F%2Fopen.demonii.com%3A1337","udp%3A%2F%2Ftracker.coppersurfer.tk%3A6969","udp%3A%2F%2Fexodus.desync.com%3A6969"],"infoHash":"29a843f775fe8ce217d458a05cf671f5ee15bd93","infoHashBuffer":{"type":"Buffer","data":[41,168,67,247,117,254,140,226,23,212,88,160,92,246,113,245,238,21,189,147]},"announce":[],"urlList":[]}}